<svg width="121" height="38" viewBox="0 0 121 38" fill="none" xmlns="http://www.w3.org/2000/svg">
<g clip-path="url(#clip0_3126_3460)">
<path opacity="0.97" d="M85.5341 36.7247C92.1432 36.7247 97.5009 31.1576 97.5009 24.2903C97.5009 17.423 92.1432 11.856 85.5341 11.856C78.9251 11.856 73.5674 17.423 73.5674 24.2903C73.5674 31.1576 78.9251 36.7247 85.5341 36.7247Z" fill="url(#paint0_linear_3126_3460)"/>
<path opacity="0.97" d="M96.698 36.7247C103.263 36.7247 108.584 31.1576 108.584 24.2903C108.584 17.423 103.263 11.856 96.698 11.856C90.1333 11.856 84.8115 17.423 84.8115 24.2903C84.8115 31.1576 90.1333 36.7247 96.698 36.7247Z" fill="url(#paint1_linear_3126_3460)"/>
<path opacity="0.97" d="M109.066 37.0606C115.631 37.0606 120.953 31.4936 120.953 24.6263C120.953 17.759 115.631 12.1919 109.066 12.1919C102.501 12.1919 97.1797 17.759 97.1797 24.6263C97.1797 31.4936 102.501 37.0606 109.066 37.0606Z" fill="url(#paint2_linear_3126_3460)"/>
<path d="M30.1931 25.1965H12.9802C13.2297 26.7839 13.8937 28.0464 14.972 28.984C16.0503 29.9216 17.4275 30.391 19.1033 30.3921C20.0606 30.4064 21.0109 30.2194 21.8977 29.8422C22.7846 29.4649 23.5899 28.9051 24.2659 28.1959L28.7795 30.4123C27.6541 32.0791 26.3064 33.3142 24.7366 34.1174C23.1667 34.9206 21.3023 35.3205 19.1435 35.3171C15.7928 35.3171 13.0621 34.212 10.9515 32.0018C8.84085 29.7917 7.79195 27.0236 7.8048 23.6977C7.8048 20.2889 8.85477 17.4587 10.9547 15.207C13.0546 12.9554 15.6879 11.8296 18.8544 11.8296C22.2179 11.8296 24.9529 12.9554 27.0592 15.207C29.1656 17.4587 30.2188 20.4323 30.2188 24.1279L30.1931 25.1965ZM24.8313 20.7823C24.4881 19.5491 23.751 18.4762 22.7432 17.7426C21.6855 16.9549 20.4143 16.5426 19.1162 16.5664C17.7033 16.5385 16.3212 17.0005 15.1856 17.8804C14.4767 18.4282 13.8214 19.3933 13.2196 20.7756L24.8313 20.7823Z" fill="#111111"/>
<path d="M52.6994 16.9207L48.2388 19.4882C47.4003 18.5708 46.5715 17.9339 45.7523 17.5777C44.8356 17.204 43.8575 17.023 42.8739 17.045C40.8692 17.045 39.248 17.6701 38.0101 18.9203C36.7722 20.1704 36.1532 21.7729 36.1532 23.7277C36.1532 25.6264 36.7497 27.1774 37.9426 28.3805C39.1355 29.5836 40.7006 30.1852 42.6377 30.1852C45.0354 30.1852 46.9024 29.3293 48.2388 27.6176L52.4633 30.6422C50.1749 33.7586 46.9431 35.3163 42.7679 35.3152C39.0124 35.3152 36.0718 34.1518 33.9462 31.8251C31.8205 29.4985 30.7572 26.7747 30.7561 23.6537C30.7421 21.5433 31.2831 19.4695 32.32 17.659C33.3568 15.8486 34.8496 14.3713 36.6351 13.3887C38.4855 12.348 40.556 11.8276 42.8466 11.8276C44.9668 11.8276 46.8708 12.269 48.5585 13.1517C50.2248 14.016 51.6508 15.3138 52.6994 16.9207Z" fill="#111111"/>
<path d="M53.3496 0.934082H58.5475L58.668 14.6623C59.7153 13.718 60.4686 13.3517 61.5288 12.8795C62.5425 12.4178 63.6356 12.1771 64.7413 12.1721C66.8616 12.1721 68.6478 12.9383 70.0998 14.4707C71.3431 15.7982 72.2651 17.4079 72.2651 19.9805V34.7421H66.9901V24.9492C66.9901 22.3615 66.8723 20.6095 66.6367 19.6932C66.4011 18.7769 65.9985 18.0924 65.4288 17.6398C64.8172 17.1758 64.0748 16.9392 63.3198 16.9677C62.2824 16.948 61.2789 17.3532 60.5232 18.0969C59.7437 18.8497 59.2039 19.8763 58.9041 21.1769C58.7467 21.849 58.668 23.3821 58.668 25.776V34.7472H53.3496V0.934082Z" fill="#111111"/>
<path opacity="0.97" d="M21.4036 20.7817H0V25.1959H21.4036V20.7817Z" fill="url(#paint3_linear_3126_3460)"/>
</g>
<defs>
<linearGradient id="paint0_linear_3126_3460" x1="84.4727" y1="39.8123" x2="86.6249" y2="11.0828" gradientUnits="userSpaceOnUse">
<stop stop-color="#0900D4"/>
<stop offset="0.49" stop-color="#FF2A42"/>
<stop offset="1" stop-color="#FFC951" stop-opacity="0.2"/>
</linearGradient>
<linearGradient id="paint1_linear_3126_3460" x1="94.372" y1="9.62265" x2="96.0764" y2="38.3847" gradientUnits="userSpaceOnUse">
<stop stop-color="#0900D4"/>
<stop offset="0.49" stop-color="#FF2A42"/>
<stop offset="0.53" stop-color="#FF3A44" stop-opacity="0.97"/>
<stop offset="0.74" stop-color="#FF874B" stop-opacity="0.82"/>
<stop offset="0.91" stop-color="#FFB74F" stop-opacity="0.73"/>
<stop offset="1" stop-color="#FFC951" stop-opacity="0.7"/>
</linearGradient>
<linearGradient id="paint2_linear_3126_3460" x1="109.468" y1="40.3574" x2="110.27" y2="11.5311" gradientUnits="userSpaceOnUse">
<stop stop-color="#0900D4"/>
<stop offset="0.49" stop-color="#FF2A42"/>
<stop offset="0.59" stop-color="#FF5046" stop-opacity="0.81"/>
<stop offset="0.73" stop-color="#FF844A" stop-opacity="0.55"/>
<stop offset="0.85" stop-color="#FFA94E" stop-opacity="0.36"/>
<stop offset="0.95" stop-color="#FFC050" stop-opacity="0.24"/>
<stop offset="1" stop-color="#FFC951" stop-opacity="0.2"/>
</linearGradient>
<linearGradient id="paint3_linear_3126_3460" x1="0" y1="22.9897" x2="21.4036" y2="22.9897" gradientUnits="userSpaceOnUse">
<stop stop-color="#0900D4"/>
<stop offset="0.49" stop-color="#FF2A42"/>
<stop offset="0.51" stop-color="#FF3343" stop-opacity="0.94"/>
<stop offset="0.65" stop-color="#FF6848" stop-opacity="0.61"/>
<stop offset="0.77" stop-color="#FF914C" stop-opacity="0.35"/>
<stop offset="0.88" stop-color="#FFB04F" stop-opacity="0.16"/>
<stop offset="0.96" stop-color="#FFC250" stop-opacity="0.04"/>
<stop offset="1" stop-color="#FFC951" stop-opacity="0"/>
</linearGradient>
<clipPath id="clip0_3126_3460">
<rect width="121" height="36.1319" fill="white" transform="translate(0 0.934082)"/>
</clipPath>
</defs>
</svg>
